<svg width="24" height="24" viewBox="0 0 24 24" fill="none" xmlns="http://www.w3.org/2000/svg">
<path d="M15.746 18.254C15.746 16.754 14.715 14.704 12.846 12.481C12.7425 12.3576 12.613 12.2587 12.4667 12.1914C12.3204 12.1242 12.161 12.0902 12 12.092C11.8378 12.0913 11.6774 12.1259 11.5299 12.1934C11.3824 12.2609 11.2514 12.3597 11.146 12.483C9.09997 14.88 8.09997 17 8.27297 18.625C8.34105 19.1388 8.51724 19.6323 8.78992 20.0731C9.06261 20.5138 9.4256 20.8917 9.85497 21.182C10.4624 21.68 11.2152 21.9671 12 22C12.9932 21.9989 13.9454 21.6039 14.6476 20.9017C15.3499 20.1994 15.7449 19.2472 15.746 18.254Z" fill="#D7FF5E"/>
<path d="M16.629 2.9C15.843 2.232 15.018 1.532 14.178 0.768C13.8595 0.478831 13.4816 0.262772 13.0708 0.134948C12.6601 0.0071233 12.2263 -0.0293778 11.8 0.0279999C11.3868 0.0827263 10.9906 0.227519 10.6395 0.452151C10.2884 0.676782 9.99087 0.975772 9.76798 1.328C8.57637 3.31983 7.7336 5.5005 7.27598 7.776C7.09695 7.51675 6.93782 7.2443 6.79998 6.961C6.65844 6.66278 6.44529 6.40424 6.17953 6.20843C5.91378 6.01262 5.60369 5.88563 5.27693 5.8388C4.95017 5.79196 4.6169 5.82673 4.30684 5.94001C3.99679 6.05329 3.71959 6.24155 3.49998 6.488C1.82329 8.20239 0.893845 10.5111 0.914982 12.909C0.891794 15.3584 1.68841 17.7453 3.17809 19.6898C4.66778 21.6343 6.76496 23.0248 9.13598 23.64C10.0438 23.8684 10.9759 23.9866 11.912 23.992C10.7157 23.9474 9.5659 23.5174 8.63398 22.766C7.98839 22.3116 7.44556 21.7266 7.04071 21.0489C6.63585 20.3711 6.37804 19.6158 6.28398 18.832C6.05398 16.622 7.17698 14.049 9.62198 11.185C9.91529 10.8412 10.2799 10.5653 10.6906 10.3765C11.1012 10.1878 11.548 10.0907 12 10.092H12.01C12.4606 10.0924 12.9057 10.191 13.3143 10.3809C13.723 10.5709 14.0853 10.8477 14.376 11.192C15.914 13.019 17.749 15.727 17.749 18.253C17.7468 19.7087 17.1924 21.1094 16.1978 22.1723C15.2032 23.2352 13.8423 23.8812 12.39 23.98C15.2616 23.8875 17.9845 22.6807 19.9818 20.6153C21.979 18.5499 23.0938 15.7881 23.09 12.915C23.085 8.385 20.093 5.845 16.629 2.9Z" fill="#D7FF5E"/>
</svg>
