<svg width="24" height="24" viewBox="0 0 24 24" fill="none" xmlns="http://www.w3.org/2000/svg">
<g clip-path="url(#clip0_189_136)">
<path d="M22.942 6.83699L20.76 4.65399L21.707 3.70699C21.8025 3.61474 21.8787 3.5044 21.9311 3.38239C21.9835 3.26039 22.0111 3.12917 22.0122 2.99639C22.0134 2.86361 21.9881 2.73193 21.9378 2.60903C21.8875 2.48614 21.8132 2.37449 21.7194 2.28059C21.6255 2.1867 21.5138 2.11245 21.3909 2.06217C21.268 2.01189 21.1363 1.98658 21.0036 1.98774C20.8708 1.98889 20.7396 2.01648 20.6176 2.06889C20.4956 2.1213 20.3852 2.19748 20.293 2.29299L19.346 3.23999L17.163 1.05799C16.4749 0.402311 15.5609 0.0365601 14.6105 0.0365601C13.66 0.0365601 12.746 0.402311 12.058 1.05799C11.7225 1.39315 11.4564 1.79114 11.2749 2.2292C11.0933 2.66725 10.9999 3.1368 10.9999 3.61099C10.9999 4.08518 11.0933 4.55472 11.2749 4.99278C11.4564 5.43084 11.7225 5.82882 12.058 6.16399L14.24 8.34599L8.34597 14.24L6.16298 12.058C5.47491 11.4023 4.56092 11.0366 3.61048 11.0366C2.66004 11.0366 1.74604 11.4023 1.05798 12.058C0.722539 12.3932 0.456436 12.7911 0.274881 13.2292C0.093326 13.6673 -0.00012207 14.1368 -0.00012207 14.611C-0.00012207 15.0852 0.093326 15.5547 0.274881 15.9928C0.456436 16.4308 0.722539 16.8288 1.05798 17.164L3.23998 19.346L2.29298 20.293C2.19747 20.3852 2.12129 20.4956 2.06888 20.6176C2.01647 20.7396 1.98888 20.8708 1.98773 21.0036C1.98658 21.1364 2.01188 21.268 2.06216 21.3909C2.11244 21.5138 2.18669 21.6255 2.28058 21.7194C2.37448 21.8133 2.48613 21.8875 2.60903 21.9378C2.73192 21.9881 2.8636 22.0134 2.99638 22.0122C3.12916 22.0111 3.26038 21.9835 3.38238 21.9311C3.50439 21.8787 3.61473 21.8025 3.70698 21.707L4.65398 20.76L6.83698 22.942C7.17212 23.2773 7.57004 23.5433 8.00801 23.7247C8.44597 23.9062 8.9154 23.9996 9.38947 23.9996C9.86354 23.9996 10.333 23.9062 10.7709 23.7247C11.2089 23.5433 11.6068 23.2773 11.942 22.942C12.2774 22.6069 12.5435 22.209 12.725 21.771C12.9065 21.3331 13 20.8636 13 20.3895C13 19.9154 12.9065 19.4459 12.725 19.0079C12.5435 18.57 12.2774 18.1721 11.942 17.837L9.75997 15.655L15.66 9.75999L17.842 11.942C18.1771 12.2773 18.575 12.5433 19.013 12.7247C19.451 12.9062 19.9204 12.9996 20.3945 12.9996C20.8685 12.9996 21.338 12.9062 21.7759 12.7247C22.2139 12.5433 22.6118 12.2773 22.947 11.942C23.2824 11.6069 23.5485 11.209 23.73 10.771C23.9115 10.3331 24.005 9.8636 24.005 9.38949C24.005 8.91538 23.9115 8.44592 23.73 8.00794C23.5485 7.56997 23.2824 7.17207 22.947 6.83699H22.942Z" fill="#D7FF5E"/>
</g>
<defs>
<clipPath id="clip0_189_136">
<rect width="24" height="24" fill="white"/>
</clipPath>
</defs>
</svg>
