<svg width="25" height="24" viewBox="0 0 25 24" fill="none" xmlns="http://www.w3.org/2000/svg">
<g clip-path="url(#clip0_191_186)">
<path d="M6.986 22.143L5.957 20.428C9.5 18.3 9.5 13.73 9.5 11C9.5 10.2043 9.81608 9.44128 10.3787 8.87867C10.9413 8.31606 11.7044 7.99999 12.5 7.99999C13.2957 7.99999 14.0587 8.31606 14.6213 8.87867C15.1839 9.44128 15.5 10.2043 15.5 11H13.5C13.5 10.7348 13.3947 10.4804 13.2071 10.2929C13.0196 10.1053 12.7652 9.99999 12.5 9.99999C12.2348 9.99999 11.9804 10.1053 11.7929 10.2929C11.6054 10.4804 11.5 10.7348 11.5 11C11.5 13.947 11.5 19.434 6.986 22.143ZM15.396 14.084L13.4 13.916C13.084 17.645 11.875 20.531 9.808 22.496L11.185 23.945C13.623 21.634 15.038 18.315 15.4 14.084H15.396ZM18.142 20.339L16.261 19.661C15.8549 20.7977 15.3179 21.8833 14.661 22.896L16.335 23.99C17.0771 22.8473 17.6835 21.6221 18.142 20.339ZM19.5 11C19.4991 9.58329 19.0683 8.20022 18.2646 7.03355C17.4609 5.86688 16.3221 4.97154 14.9987 4.46583C13.6754 3.96013 12.2297 3.86787 10.8528 4.20125C9.47584 4.53463 8.23249 5.27795 7.287 6.33299L8.776 7.66699C9.45128 6.91327 10.3394 6.3822 11.3229 6.14396C12.3064 5.90572 13.3391 5.97153 14.2845 6.3327C15.2298 6.69386 16.0433 7.33338 16.6174 8.16672C17.1916 9.00007 17.4993 9.98802 17.5 11C17.5369 12.9468 17.3821 14.8925 17.038 16.809L19.001 17.191C19.3712 15.1488 19.5383 13.0751 19.5 11ZM7.5 11C7.49971 10.7209 7.52279 10.4422 7.569 10.167L5.6 9.83299C5.53399 10.2185 5.50054 10.6089 5.5 11C5.5 15.645 4.154 18 1.5 18V20C5.369 20 7.5 16.8 7.5 11ZM23.5 11C23.5046 9.33891 23.1283 7.69889 22.4 6.20599L20.6 7.08099C21.195 8.30156 21.5029 9.64211 21.5 11C21.6369 15.0932 20.8601 19.1656 19.226 22.921L21.026 23.782C22.7951 19.7596 23.6405 15.392 23.5 11ZM3.5 11C3.50265 8.61386 4.45171 6.32621 6.13897 4.63895C7.82622 2.9517 10.1139 2.00264 12.5 1.99999C14.4484 1.9935 16.3452 2.62577 17.9 3.79999L19.1 2.19999C17.1994 0.765412 14.8813 -0.00729584 12.5 -9.98068e-06C9.58368 0.00343049 6.78778 1.16346 4.72563 3.22562C2.66347 5.28777 1.50344 8.08367 1.5 11V14H3.5V11Z" fill="#D7FF5E"/>
</g>
<defs>
<clipPath id="clip0_191_186">
<rect width="24" height="24" fill="white" transform="translate(0.5)"/>
</clipPath>
</defs>
</svg>
