<svg width="24" height="25" viewBox="0 0 24 25" fill="none" xmlns="http://www.w3.org/2000/svg">
<g clip-path="url(#clip0_329_140)">
<path d="M4 24.9879L5.333 22.3209L8 20.9879L5.333 19.6549L4 16.9879L2.667 19.6549L0 20.9879L2.667 22.3209L4 24.9879Z" fill="#D7FF5E"/>
<path d="M21.333 22.3209L24 20.9879L21.333 19.6549L20 16.9879L18.667 19.6549L16 20.9879L18.667 22.3209L20 24.9879L21.333 22.3209Z" fill="#D7FF5E"/>
<path d="M13.333 3.65489L12 0.987885L10.667 3.65489L8 4.98789L10.667 6.32089L12 8.98789L13.333 6.32089L16 4.98789L13.333 3.65489Z" fill="#D7FF5E"/>
<path d="M5 14.9879C5.55228 14.9879 6 14.5402 6 13.9879C6 13.4356 5.55228 12.9879 5 12.9879C4.44771 12.9879 4 13.4356 4 13.9879C4 14.5402 4.44771 14.9879 5 14.9879Z" fill="#D7FF5E"/>
<path d="M1 10.9879C1.55228 10.9879 2 10.5402 2 9.98788C2 9.4356 1.55228 8.98788 1 8.98788C0.447715 8.98788 0 9.4356 0 9.98788C0 10.5402 0.447715 10.9879 1 10.9879Z" fill="#D7FF5E"/>
<path d="M5 6.98788C5.55228 6.98788 6 6.54017 6 5.98788C6 5.4356 5.55228 4.98788 5 4.98788C4.44771 4.98788 4 5.4356 4 5.98788C4 6.54017 4.44771 6.98788 5 6.98788Z" fill="#D7FF5E"/>
<path d="M1 2.98788C1.55228 2.98788 2 2.54017 2 1.98788C2 1.4356 1.55228 0.987885 1 0.987885C0.447715 0.987885 0 1.4356 0 1.98788C0 2.54017 0.447715 2.98788 1 2.98788Z" fill="#D7FF5E"/>
<path d="M23 14.9879C23.5523 14.9879 24 14.5402 24 13.9879C24 13.4356 23.5523 12.9879 23 12.9879C22.4477 12.9879 22 13.4356 22 13.9879C22 14.5402 22.4477 14.9879 23 14.9879Z" fill="#D7FF5E"/>
<path d="M19 10.9879C19.5523 10.9879 20 10.5402 20 9.98788C20 9.4356 19.5523 8.98788 19 8.98788C18.4477 8.98788 18 9.4356 18 9.98788C18 10.5402 18.4477 10.9879 19 10.9879Z" fill="#D7FF5E"/>
<path d="M23 6.98788C23.5523 6.98788 24 6.54017 24 5.98788C24 5.4356 23.5523 4.98788 23 4.98788C22.4477 4.98788 22 5.4356 22 5.98788C22 6.54017 22.4477 6.98788 23 6.98788Z" fill="#D7FF5E"/>
<path d="M19 2.98788C19.5523 2.98788 20 2.54017 20 1.98788C20 1.4356 19.5523 0.987885 19 0.987885C18.4477 0.987885 18 1.4356 18 1.98788C18 2.54017 18.4477 2.98788 19 2.98788Z" fill="#D7FF5E"/>
<path d="M14 24.9879C14.5523 24.9879 15 24.5402 15 23.9879C15 23.4356 14.5523 22.9879 14 22.9879C13.4477 22.9879 13 23.4356 13 23.9879C13 24.5402 13.4477 24.9879 14 24.9879Z" fill="#D7FF5E"/>
<path d="M10 20.9879C10.5523 20.9879 11 20.5402 11 19.9879C11 19.4356 10.5523 18.9879 10 18.9879C9.44771 18.9879 9 19.4356 9 19.9879C9 20.5402 9.44771 20.9879 10 20.9879Z" fill="#D7FF5E"/>
<path d="M14 16.9879C14.5523 16.9879 15 16.5402 15 15.9879C15 15.4356 14.5523 14.9879 14 14.9879C13.4477 14.9879 13 15.4356 13 15.9879C13 16.5402 13.4477 16.9879 14 16.9879Z" fill="#D7FF5E"/>
<path d="M10 12.9879C10.5523 12.9879 11 12.5402 11 11.9879C11 11.4356 10.5523 10.9879 10 10.9879C9.44771 10.9879 9 11.4356 9 11.9879C9 12.5402 9.44771 12.9879 10 12.9879Z" fill="#D7FF5E"/>
</g>
<defs>
<clipPath id="clip0_329_140">
<rect width="24" height="24" fill="white" transform="translate(0 0.987885)"/>
</clipPath>
</defs>
</svg>
