<svg width="25" height="24" viewBox="0 0 25 24" fill="none" xmlns="http://www.w3.org/2000/svg">
<g clip-path="url(#clip0_189_134)">
<path d="M24.2287 22.3017C24.4105 22.495 24.508 22.7527 24.4999 23.018C24.4917 23.2832 24.3785 23.5344 24.1852 23.7162C23.9918 23.898 23.7342 23.9956 23.4689 23.9874C23.2037 23.9793 22.9525 23.866 22.7707 23.6727L17.2877 17.8337C16.2517 17.8667 11.4807 18.0087 12.9757 15.7537C13.1009 15.6265 13.2582 15.5356 13.431 15.4909C13.6038 15.4461 13.7855 15.4492 13.9567 15.4997C15.0746 15.8465 16.2546 15.9454 17.4147 15.7897C17.6151 15.764 17.8188 15.7869 18.0086 15.8566C18.1983 15.9262 18.3684 16.0404 18.5047 16.1897L24.2287 22.3017ZM15.4997 13.9877C16.1563 13.9886 16.8066 13.86 17.4134 13.6091C18.0202 13.3582 18.5715 12.9901 19.0357 12.5257L24.2067 7.35371C24.2997 7.26087 24.3734 7.15062 24.4238 7.02926C24.4742 6.9079 24.5002 6.77781 24.5002 6.64642C24.5003 6.51502 24.4745 6.3849 24.4244 6.26347C24.3742 6.14204 24.3005 6.03169 24.2077 5.93871C24.1148 5.84574 24.0046 5.77196 23.8832 5.72159C23.7619 5.67122 23.6318 5.64525 23.5004 5.64515C23.369 5.64506 23.2389 5.67085 23.1174 5.72105C22.996 5.77124 22.8857 5.84487 22.7927 5.93771L17.6217 11.1097C17.1825 11.545 16.6196 11.834 16.0099 11.9371C15.4002 12.0402 14.7736 11.9524 14.2157 11.6857L21.2067 4.69471C21.3022 4.60246 21.3784 4.49212 21.4308 4.37012C21.4832 4.24811 21.5108 4.11689 21.5119 3.98411C21.5131 3.85133 21.4878 3.71965 21.4375 3.59676C21.3872 3.47386 21.313 3.36221 21.2191 3.26832C21.1252 3.17442 21.0135 3.10017 20.8906 3.04989C20.7677 2.99961 20.6361 2.97431 20.5033 2.97546C20.3705 2.97661 20.2393 3.0042 20.1173 3.05661C19.9953 3.10902 19.8849 3.1852 19.7927 3.28071L12.7997 10.2717C12.533 9.71384 12.4452 9.08718 12.5483 8.47749C12.6514 7.8678 12.9404 7.30486 13.3757 6.86571L18.5497 1.69471C18.7318 1.50611 18.8326 1.25351 18.8304 0.99131C18.8281 0.729114 18.7229 0.478301 18.5375 0.292893C18.3521 0.107485 18.1013 0.00231622 17.8391 3.78026e-05C17.5769 -0.00224062 17.3243 0.0985538 17.1357 0.280712L11.9637 5.45171C11.1504 6.26772 10.6433 7.33909 10.5276 8.48534C10.4119 9.63159 10.6948 10.7827 11.3287 11.7447L0.792695 22.2807C0.610537 22.4693 0.509742 22.7219 0.512021 22.9841C0.514299 23.2463 0.619468 23.4971 0.804876 23.6825C0.990284 23.8679 1.2411 23.9731 1.50329 23.9754C1.76549 23.9777 2.01809 23.8769 2.20669 23.6947L12.7427 13.1587C13.5605 13.6994 14.5193 13.9876 15.4997 13.9877ZM5.95169 12.9527C6.78069 13.7337 7.54569 12.6967 8.10269 12.1417C8.3331 11.9088 8.50275 11.6228 8.59673 11.3089C8.69072 10.9951 8.70616 10.6629 8.64169 10.3417C8.02469 8.61971 9.53269 6.60971 8.28469 5.22471L3.82869 0.560712C3.55383 0.293656 3.20676 0.112946 2.83036 0.0408947C2.45396 -0.0311565 2.06469 0.00860591 1.71063 0.155272C1.35657 0.301939 1.05321 0.549087 0.838012 0.866202C0.622815 1.18332 0.505202 1.55651 0.499695 1.93971C0.736695 6.55371 2.43469 8.90771 5.95169 12.9527Z" fill="#D7FF5E"/>
</g>
<defs>
<clipPath id="clip0_189_134">
<rect width="24.0007" height="23.9879" fill="white" transform="translate(0.499695)"/>
</clipPath>
</defs>
</svg>
