<svg width="24" height="24" viewBox="0 0 24 24" fill="none" xmlns="http://www.w3.org/2000/svg">
<g clip-path="url(#clip0_189_168)">
<path d="M14.09 16H15C21.643 16 24 12.5 24 9.49999C23.999 8.68698 23.715 7.89967 23.1968 7.27323C22.6786 6.64679 21.9584 6.2203 21.16 6.06699C21.32 5.74383 21.4567 5.40965 21.569 5.06699C21.7436 4.48194 21.7779 3.86399 21.6691 3.26321C21.5603 2.66243 21.3116 2.09572 20.943 1.60899C20.5711 1.10743 20.0864 0.700433 19.528 0.420914C18.9697 0.141395 18.3534 -0.00279837 17.729 -5.97973e-06H6.271C5.64635 -0.00245171 5.02989 0.142204 4.47153 0.422254C3.91317 0.702303 3.42859 1.10988 3.057 1.61199C2.68841 2.09872 2.43966 2.66543 2.3309 3.26621C2.22214 3.86699 2.25643 4.48494 2.431 5.06999C2.54332 5.41265 2.68 5.74683 2.84 6.06999C2.04208 6.22321 1.32232 6.64925 0.804145 7.27507C0.285973 7.90089 0.00167365 8.6875 0 9.49999C0 12.5 2.357 16 9 16H9.91C9.96825 16.3036 9.99838 16.6119 10 16.921V20C10.0172 20.2671 9.97722 20.5348 9.88279 20.7852C9.78836 21.0357 9.64162 21.2631 9.45236 21.4524C9.2631 21.6416 9.03567 21.7884 8.78523 21.8828C8.53479 21.9772 8.2671 22.0172 8 22H6C5.73478 22 5.48043 22.1053 5.29289 22.2929C5.10536 22.4804 5 22.7348 5 23C5 23.2652 5.10536 23.5196 5.29289 23.7071C5.48043 23.8946 5.73478 24 6 24H18C18.2652 24 18.5196 23.8946 18.7071 23.7071C18.8946 23.5196 19 23.2652 19 23C19 22.7348 18.8946 22.4804 18.7071 22.2929C18.5196 22.1053 18.2652 22 18 22H16.006C15.7385 22.0177 15.4703 21.9782 15.2193 21.8841C14.9682 21.7899 14.7402 21.6433 14.5503 21.454C14.3605 21.2647 14.2132 21.0371 14.1183 20.7864C14.0234 20.5356 13.9831 20.2675 14 20V16.92C14.0017 16.6112 14.0318 16.3032 14.09 16ZM15.726 13.149C17.4395 11.6311 18.9218 9.87078 20.126 7.92399C20.2446 7.9731 20.3716 7.9989 20.5 7.99999C20.8978 7.99999 21.2793 8.15803 21.5607 8.43933C21.842 8.72064 22 9.10217 22 9.49999C22 11.676 20.161 14 15 14H14.944C15.1695 13.6859 15.432 13.4002 15.726 13.149ZM9 14C3.839 14 2 11.676 2 9.49999C2 9.10217 2.15803 8.72064 2.43934 8.43933C2.72064 8.15803 3.10217 7.99999 3.5 7.99999C3.62873 7.99903 3.75606 7.97323 3.875 7.92399C5.07919 9.87078 6.56153 11.6311 8.275 13.149C8.5686 13.4002 8.83083 13.686 9.056 14H9Z" fill="#D7FF5E"/>
</g>
<defs>
<clipPath id="clip0_189_168">
<rect width="24" height="24" fill="white"/>
</clipPath>
</defs>
</svg>
